<svg version="1.1" id="Capa_1" xmlns="http://www.w3.org/2000/svg" xmlns:xlink="http://www.w3.org/1999/xlink" x="0px" y="0px"
	 viewBox="0 0 512 512" style="fill: #333;" xml:space="preserve">
  <g>
    <g>
      <path d="M497,90c8.284,0,15-6.716,15-15V60c0-33.084-26.916-60-60-60H90C56.916,0,30,26.916,30,60v64.58
        C12.541,130.772,0,147.445,0,167s12.541,36.228,30,42.42c0,5.96,0,199.95,0,215.16C12.541,430.772,0,447.445,0,467
        c0,24.813,20.187,45,45,45c2.883,0,399.528,0,407,0c33.084,0,60-26.916,60-60c0-6.853-1.15-13.581-3.418-19.998
        c-2.118-5.994-7.785-10.002-14.143-10.002H420V90H497z M45,152h180c8.271,0,15,6.729,15,15s-6.729,15-15,15H45.015
        c-0.005,0-0.01-0.001-0.015-0.001c-0.002,0-0.005,0-0.007,0C36.725,181.996,30,175.269,30,167C30,158.729,36.729,152,45,152z
        M145.607,366.394c-5.857-5.858-15.355-5.858-21.213,0L68.787,422H60v-15c0-41.355,33.645-75,75-75s75,33.645,75,75v15h-8.787
        L145.607,366.394z M158.787,422h-47.574L135,398.213L158.787,422z M60,333.596v-33.192c6.242,6.377,13.286,11.965,20.971,16.596
        C73.286,321.631,66.242,327.219,60,333.596z M135,302c-41.355,0-75-33.645-75-75v-15h150v15C210,268.355,176.355,302,135,302z
        M225,482H45c-8.271,0-15-6.729-15-15s6.729-15,15-15c7.783,0,171.944,0,180,0c8.271,0,15,6.729,15,15S233.271,482,225,482z
        M267.42,482c1.665-4.695,2.58-9.742,2.58-15c0-19.555-12.541-36.228-30-42.42V407c0-38.151-20.455-71.612-50.971-90
        C219.545,298.612,240,265.151,240,227v-17.58c17.459-6.192,30-22.865,30-42.42c0-24.813-20.187-45-45-45H60V60
        c0-16.542,13.458-30,30-30c20.67,0,35.18,20.52,28.297,40.001C114.848,79.757,122.104,90,132.439,90H390v362
        c0,10.84,3.168,21.112,8.618,30C396.467,482,269.592,482,267.42,482z M482,452c0,16.542-13.458,30-30,30
        c-17.047,0-32-14.019-32-30H482z M150,60c0-10.92-2.934-21.17-8.052-30H452c16.542,0,30,13.458,30,30H150z"/>
    </g>
  </g>
</svg>
